<svg width="30" height="30" viewBox="0 0 30 30" fill="none" xmlns="http://www.w3.org/2000/svg">
<path d="M17.8775 5.66816C17.8775 3.93635 19.2866 2.5318 21.0139 2.5318C22.7411 2.5318 24.1502 3.94089 24.1502 5.66816C24.1502 7.39089 22.7502 8.79544 21.0275 8.80453C21.023 8.80453 21.0139 8.80453 21.0093 8.80453C21.0048 8.80453 20.9957 8.80453 20.9911 8.80453C19.273 8.79544 17.8775 7.39089 17.8775 5.66816ZM15.0002 11.2409C15.4184 11.2409 15.8184 11.3091 16.2002 11.45C17.6775 11.95 18.673 13.3409 18.673 14.9136C18.673 15.6 18.4866 16.2636 18.1275 16.8364C17.4548 17.9318 16.2866 18.5864 15.0002 18.5864C13.7184 18.5864 12.5502 17.9318 11.8729 16.8318C11.5184 16.2636 11.3275 15.6 11.3275 14.9136C11.3275 13.3409 12.3229 11.95 13.8139 11.4454C14.182 11.3091 14.582 11.2409 15.0002 11.2409ZM5.84567 5.66816C5.84567 3.93635 7.25476 2.5318 8.98204 2.5318C10.7093 2.5318 12.1184 3.94089 12.1184 5.66816C12.1184 7.39089 10.7229 8.79544 9.00022 8.80453C8.99567 8.80453 8.98658 8.80453 8.98204 8.80453C8.97749 8.80453 8.9684 8.80453 8.96385 8.80453C7.24567 8.79544 5.84567 7.39544 5.84567 5.66816ZM2.55021 16.5682C2.35476 16.5682 2.17294 16.4818 2.05021 16.3318C1.97749 16.2454 1.86839 16.0682 1.9093 15.8273C2.53658 12.4227 5.50476 9.95453 8.9684 9.94544C8.97294 9.94544 8.97749 9.94544 8.98658 9.94544C8.99113 9.94544 8.99567 9.94544 9.00476 9.94544C10.232 9.94999 11.4048 10.2545 12.4593 10.8363C12.3866 10.8818 12.3184 10.9363 12.2457 10.9909C12.182 11.0363 12.1139 11.0818 12.0502 11.1273C11.9093 11.2363 11.782 11.35 11.6548 11.4727C11.6184 11.5091 11.5775 11.5409 11.5411 11.5773C11.3866 11.7409 11.2411 11.9136 11.1093 12.0954C11.0775 12.1409 11.0502 12.1909 11.0139 12.2409C10.9184 12.3818 10.832 12.5227 10.7502 12.6727C10.7139 12.7409 10.682 12.8136 10.6457 12.8864C10.582 13.0227 10.5229 13.1636 10.4729 13.3045C10.4457 13.3818 10.4184 13.4591 10.3957 13.5409C10.3502 13.6909 10.3139 13.8454 10.2866 14C10.2729 14.0727 10.2548 14.1409 10.2457 14.2182C10.2139 14.45 10.1911 14.6818 10.1911 14.9182C10.1911 15.1182 10.2093 15.3182 10.232 15.5136C10.2366 15.5591 10.2411 15.6 10.2502 15.6454C10.2775 15.8364 10.3184 16.0273 10.3684 16.2136C10.3775 16.2409 10.3866 16.2727 10.3957 16.3C10.4229 16.3909 10.4502 16.4818 10.482 16.5727H2.55021V16.5682ZM23.173 26.5227C23.2139 26.7545 23.1548 26.9818 23.0002 27.1682C22.8411 27.3591 22.6093 27.4682 22.3639 27.4682H7.63658C7.39112 27.4682 7.15931 27.3591 7.00022 27.1682C6.84567 26.9818 6.78658 26.7545 6.82749 26.5227C7.55022 22.5864 10.9911 19.7273 15.0002 19.7273C19.0093 19.7273 22.4502 22.5864 23.173 26.5227ZM27.9502 16.3318C27.823 16.4818 27.6411 16.5682 27.4502 16.5682H19.523C19.5548 16.4773 19.582 16.3864 19.6093 16.2909C19.6184 16.2636 19.6275 16.2364 19.6366 16.2091C19.6866 16.0227 19.7275 15.8318 19.7548 15.6409C19.7593 15.6 19.7684 15.5545 19.773 15.5136C19.7957 15.3182 19.8139 15.1182 19.8139 14.9136C19.8139 14.6773 19.7911 14.4454 19.7593 14.2136C19.7502 14.1409 19.732 14.0682 19.7184 13.9954C19.6866 13.8409 19.6548 13.6864 19.6093 13.5364C19.5866 13.4545 19.5593 13.3773 19.5275 13.2954C19.4775 13.1545 19.423 13.0227 19.3593 12.8909C19.323 12.8136 19.2911 12.7364 19.2502 12.6636C19.1775 12.5273 19.0957 12.3954 19.0093 12.2636C18.9684 12.2045 18.9366 12.1409 18.8911 12.0818C18.7639 11.9045 18.6229 11.7364 18.4729 11.5818C18.4184 11.5273 18.3593 11.4773 18.3048 11.4273C18.1957 11.3273 18.0911 11.2273 17.9729 11.1363C17.8957 11.0773 17.8184 11.0227 17.7366 10.9682C17.6729 10.9227 17.6139 10.8727 17.5457 10.8318C18.5957 10.25 19.773 9.94544 21.0002 9.9409C21.0048 9.9409 21.0093 9.9409 21.0184 9.9409C21.023 9.9409 21.0275 9.9409 21.0366 9.9409C24.5002 9.94999 27.4684 12.4227 28.0957 15.8182C28.132 16.0682 28.023 16.2454 27.9502 16.3318Z" fill="#BEC0C0"/>
</svg>
