<svg xmlns="http://www.w3.org/2000/svg"  viewBox="0 0 24 24" width="24px" height="24px"><path d="M 12 3 C 4.1708964 3 0.07421875 11.673828 0.07421875 11.673828 A 0.750075 0.750075 0 0 0 0.07421875 12.326172 C 0.07421875 12.326172 4.1708964 21 12 21 C 19.829104 21 23.925781 12.326172 23.925781 12.326172 A 0.750075 0.750075 0 0 0 23.925781 11.673828 C 23.925781 11.673828 19.829104 3 12 3 z M 12 4.5 C 18.246648 4.5 21.906073 11.090872 22.384766 12 C 21.906073 12.909128 18.246648 19.5 12 19.5 C 5.7533524 19.5 2.0939268 12.909128 1.6152344 12 C 2.0939268 11.090872 5.7533524 4.5 12 4.5 z M 12 7 C 10.395834 7 9.0977407 7.6285667 8.2519531 8.5800781 C 7.4061656 9.5315896 7 10.770833 7 12 C 7 13.229167 7.4061656 14.46841 8.2519531 15.419922 C 9.0977407 16.371433 10.395834 17 12 17 C 13.604166 17 14.902259 16.371433 15.748047 15.419922 C 16.593834 14.46841 17 13.229167 17 12 C 17 10.770833 16.593834 9.5315896 15.748047 8.5800781 C 14.902259 7.6285667 13.604166 7 12 7 z M 12 8.5 C 13.229166 8.5 14.056075 8.9339333 14.626953 9.5761719 C 15.197832 10.21841 15.5 11.104167 15.5 12 C 15.5 12.895833 15.197832 13.78159 14.626953 14.423828 C 14.056075 15.066067 13.229166 15.5 12 15.5 C 10.770834 15.5 9.9439254 15.066067 9.3730469 14.423828 C 8.8021684 13.78159 8.5 12.895833 8.5 12 C 8.5 11.104167 8.8021684 10.21841 9.3730469 9.5761719 C 9.9439254 8.9339333 10.770834 8.5 12 8.5 z"/></svg>