<svg width="26" height="27" viewBox="0 0 26 27" fill="none" xmlns="http://www.w3.org/2000/svg">
<path d="M3.125 0C1.40655 0 0 1.40655 0 3.125V23.125C0 24.8434 1.40655 26.25 3.125 26.25H13.75C15.4684 26.25 16.875 24.8434 16.875 23.125V13.75H23.728L19.5715 17.6709C19.3964 17.8208 19.318 18.0549 19.3676 18.2801C19.4171 18.5052 19.5866 18.6848 19.8085 18.7473C20.0303 18.8099 20.2686 18.7452 20.4284 18.5791L25.2392 14.0442C25.7686 13.5555 25.7686 12.6945 25.2392 12.2058L20.4284 7.6709C20.2686 7.50478 20.0303 7.44012 19.8085 7.50266C19.5866 7.5652 19.4171 7.74478 19.3676 7.96991C19.318 8.19504 19.3964 8.42918 19.5715 8.5791L23.728 12.5H11.25C11.0246 12.4968 10.8149 12.6152 10.7013 12.8099C10.5877 13.0046 10.5877 13.2454 10.7013 13.4401C10.8149 13.6348 11.0246 13.7532 11.25 13.75H15.625V23.125C15.625 24.1678 14.7928 25 13.75 25H3.125C2.0822 25 1.25 24.1678 1.25 23.125V3.125C1.25 2.0822 2.0822 1.25 3.125 1.25H13.75C14.7928 1.25 15.625 2.0822 15.625 3.125V10.625C15.6218 10.8504 15.7402 11.06 15.9349 11.1737C16.1296 11.2873 16.3704 11.2873 16.5651 11.1737C16.7598 11.06 16.8782 10.8504 16.875 10.625V3.125C16.875 1.40655 15.4684 0 13.75 0H3.125Z" fill="#BEC0C0"/>
</svg>
