<svg width="30" height="30" viewBox="0 0 30 30" fill="none" xmlns="http://www.w3.org/2000/svg">
<path d="M4.5 4.5C3.676 4.5 3 5.176 3 6V15C3 15.824 3.676 16.5 4.5 16.5H5.25V19.6553L8.40527 16.5H19.5C20.324 16.5 21 15.824 21 15V6C21 5.176 20.324 4.5 19.5 4.5H4.5ZM4.5 5.25H19.5C19.9188 5.25 20.25 5.58125 20.25 6V15C20.25 15.4188 19.9188 15.75 19.5 15.75H8.09473L6 17.8447V15.75H4.5C4.08125 15.75 3.75 15.4188 3.75 15V6C3.75 5.58125 4.08125 5.25 4.5 5.25ZM5.25 6.375C5.0429 6.375 4.875 6.5429 4.875 6.75C4.875 6.9571 5.0429 7.125 5.25 7.125C5.4571 7.125 5.625 6.9571 5.625 6.75C5.625 6.5429 5.4571 6.375 5.25 6.375ZM6.75 6.375C6.5429 6.375 6.375 6.5429 6.375 6.75C6.375 6.9571 6.5429 7.125 6.75 7.125C6.9571 7.125 7.125 6.9571 7.125 6.75C7.125 6.5429 6.9571 6.375 6.75 6.375ZM8.25 6.375C8.04289 6.375 7.875 6.5429 7.875 6.75C7.875 6.9571 8.04289 7.125 8.25 7.125C8.45711 7.125 8.625 6.9571 8.625 6.75C8.625 6.5429 8.45711 6.375 8.25 6.375ZM9.75 6.375C9.54289 6.375 9.375 6.5429 9.375 6.75C9.375 6.9571 9.54289 7.125 9.75 7.125C9.95711 7.125 10.125 6.9571 10.125 6.75C10.125 6.5429 9.95711 6.375 9.75 6.375ZM11.25 6.375C11.0429 6.375 10.875 6.5429 10.875 6.75C10.875 6.9571 11.0429 7.125 11.25 7.125C11.4571 7.125 11.625 6.9571 11.625 6.75C11.625 6.5429 11.4571 6.375 11.25 6.375ZM12.75 6.375C12.5429 6.375 12.375 6.5429 12.375 6.75C12.375 6.9571 12.5429 7.125 12.75 7.125C12.9571 7.125 13.125 6.9571 13.125 6.75C13.125 6.5429 12.9571 6.375 12.75 6.375ZM14.25 6.375C14.0429 6.375 13.875 6.5429 13.875 6.75C13.875 6.9571 14.0429 7.125 14.25 7.125C14.4571 7.125 14.625 6.9571 14.625 6.75C14.625 6.5429 14.4571 6.375 14.25 6.375ZM15.75 6.375C15.5429 6.375 15.375 6.5429 15.375 6.75C15.375 6.9571 15.5429 7.125 15.75 7.125C15.9571 7.125 16.125 6.9571 16.125 6.75C16.125 6.5429 15.9571 6.375 15.75 6.375ZM17.25 6.375C17.0429 6.375 16.875 6.5429 16.875 6.75C16.875 6.9571 17.0429 7.125 17.25 7.125C17.4571 7.125 17.625 6.9571 17.625 6.75C17.625 6.5429 17.4571 6.375 17.25 6.375ZM18.75 6.375C18.5429 6.375 18.375 6.5429 18.375 6.75C18.375 6.9571 18.5429 7.125 18.75 7.125C18.9571 7.125 19.125 6.9571 19.125 6.75C19.125 6.5429 18.9571 6.375 18.75 6.375ZM5.25 7.875C5.0429 7.875 4.875 8.0429 4.875 8.25C4.875 8.4571 5.0429 8.625 5.25 8.625C5.4571 8.625 5.625 8.4571 5.625 8.25C5.625 8.0429 5.4571 7.875 5.25 7.875ZM8.25 9C8.11476 8.99809 7.98897 9.06914 7.92079 9.18595C7.85261 9.30276 7.85261 9.44724 7.92079 9.56404C7.98897 9.68086 8.11476 9.75191 8.25 9.75H17.25C17.3852 9.75191 17.511 9.68085 17.5792 9.56404C17.6474 9.44723 17.6474 9.30276 17.5792 9.18595C17.511 9.06914 17.3852 8.99809 17.25 9H8.25ZM5.25 9.375C5.0429 9.375 4.875 9.54289 4.875 9.75C4.875 9.95711 5.0429 10.125 5.25 10.125C5.4571 10.125 5.625 9.95711 5.625 9.75C5.625 9.54289 5.4571 9.375 5.25 9.375ZM5.25 10.875C5.0429 10.875 4.875 11.0429 4.875 11.25C4.875 11.4571 5.0429 11.625 5.25 11.625C5.4571 11.625 5.625 11.4571 5.625 11.25C5.625 11.0429 5.4571 10.875 5.25 10.875ZM8.25 10.875C8.11476 10.8731 7.98897 10.9441 7.92079 11.061C7.85261 11.1778 7.85261 11.3222 7.92079 11.439C7.98897 11.5559 8.11476 11.6269 8.25 11.625H17.25C17.3852 11.6269 17.511 11.5559 17.5792 11.439C17.6474 11.3222 17.6474 11.1778 17.5792 11.061C17.511 10.9441 17.3852 10.8731 17.25 10.875H8.25ZM5.25 12.375C5.0429 12.375 4.875 12.5429 4.875 12.75C4.875 12.9571 5.0429 13.125 5.25 13.125C5.4571 13.125 5.625 12.9571 5.625 12.75C5.625 12.5429 5.4571 12.375 5.25 12.375ZM8.25 12.75C8.11476 12.7481 7.98897 12.8191 7.92079 12.936C7.85261 13.0528 7.85261 13.1972 7.92079 13.314C7.98897 13.4309 8.11476 13.5019 8.25 13.5H13.125C13.2602 13.5019 13.386 13.4309 13.4542 13.314C13.5224 13.1972 13.5224 13.0528 13.4542 12.936C13.386 12.8191 13.2602 12.7481 13.125 12.75H8.25ZM21.75 13.125V13.875H25.5C25.9188 13.875 26.25 14.2062 26.25 14.625V23.625C26.25 24.0438 25.9188 24.375 25.5 24.375H24V26.4697L21.9053 24.375H10.5C10.0812 24.375 9.75 24.0438 9.75 23.625V17.25H9V23.625C9 24.449 9.676 25.125 10.5 25.125H21.5947L24.75 28.2803V25.125H25.5C26.324 25.125 27 24.449 27 23.625V14.625C27 13.801 26.324 13.125 25.5 13.125H21.75ZM5.25 13.875C5.0429 13.875 4.875 14.0429 4.875 14.25C4.875 14.4571 5.0429 14.625 5.25 14.625C5.4571 14.625 5.625 14.4571 5.625 14.25C5.625 14.0429 5.4571 13.875 5.25 13.875ZM23.25 15C23.0429 15 22.875 15.1679 22.875 15.375C22.875 15.5821 23.0429 15.75 23.25 15.75C23.4571 15.75 23.625 15.5821 23.625 15.375C23.625 15.1679 23.4571 15 23.25 15ZM24.75 15C24.5429 15 24.375 15.1679 24.375 15.375C24.375 15.5821 24.5429 15.75 24.75 15.75C24.9571 15.75 25.125 15.5821 25.125 15.375C25.125 15.1679 24.9571 15 24.75 15ZM11.25 18C11.0429 18 10.875 18.1679 10.875 18.375C10.875 18.5821 11.0429 18.75 11.25 18.75C11.4571 18.75 11.625 18.5821 11.625 18.375C11.625 18.1679 11.4571 18 11.25 18ZM14.25 18C14.1148 17.9981 13.989 18.0691 13.9208 18.186C13.8526 18.3028 13.8526 18.4472 13.9208 18.564C13.989 18.6809 14.1148 18.7519 14.25 18.75H23.25C23.3852 18.7519 23.511 18.6809 23.5792 18.564C23.6474 18.4472 23.6474 18.3028 23.5792 18.186C23.511 18.0691 23.3852 17.9981 23.25 18H14.25ZM11.25 19.5C11.0429 19.5 10.875 19.6679 10.875 19.875C10.875 20.0821 11.0429 20.25 11.25 20.25C11.4571 20.25 11.625 20.0821 11.625 19.875C11.625 19.6679 11.4571 19.5 11.25 19.5ZM14.25 19.875C14.1148 19.8731 13.989 19.9441 13.9208 20.061C13.8526 20.1778 13.8526 20.3222 13.9208 20.439C13.989 20.5559 14.1148 20.6269 14.25 20.625H23.25C23.3852 20.6269 23.511 20.5559 23.5792 20.439C23.6474 20.3222 23.6474 20.1778 23.5792 20.061C23.511 19.9441 23.3852 19.8731 23.25 19.875H14.25ZM11.25 21C11.0429 21 10.875 21.1679 10.875 21.375C10.875 21.5821 11.0429 21.75 11.25 21.75C11.4571 21.75 11.625 21.5821 11.625 21.375C11.625 21.1679 11.4571 21 11.25 21ZM14.25 21.75C14.1148 21.7481 13.989 21.8191 13.9208 21.936C13.8526 22.0528 13.8526 22.1972 13.9208 22.314C13.989 22.4309 14.1148 22.5019 14.25 22.5H19.125C19.2602 22.5019 19.386 22.4309 19.4542 22.314C19.5224 22.1972 19.5224 22.0528 19.4542 21.936C19.386 21.8191 19.2602 21.7481 19.125 21.75H14.25ZM11.25 22.5C11.0429 22.5 10.875 22.6679 10.875 22.875C10.875 23.0821 11.0429 23.25 11.25 23.25C11.4571 23.25 11.625 23.0821 11.625 22.875C11.625 22.6679 11.4571 22.5 11.25 22.5Z" fill="#BEC0C0"/>
</svg>
