<svg version="1.1" xmlns="http://www.w3.org/2000/svg" style="display: block;" viewBox="0 0 2048 2048" width="1024" height="1024" preserveAspectRatio="none">
<path transform="translate(0,0)" fill="rgb(238,220,241)" d="M 1477.83 1608.87 C 1483.16 1613.25 1493 1624 1498.27 1629.39 C 1510.52 1641.94 1522.87 1654.39 1535.34 1666.73 C 1524.09 1676.74 1500.92 1692.04 1487.92 1701.08 C 1225.38 1881.46 888.61 1895.17 614.412 1735.29 C 585.317 1718.32 537.622 1689.76 513.356 1666.24 C 530.447 1647.89 551.395 1629.25 569.746 1609.67 C 575.619 1612.85 591.663 1624.93 598.326 1629.59 C 611.915 1639.07 625.881 1648 640.189 1656.36 C 733.88 1711.81 830.717 1747.87 939.378 1760.63 C 1131.78 1782.14 1324.97 1727.68 1477.83 1608.87 z"/>
<path transform="translate(0,0)" fill="rgb(204,147,214)" d="M 719.187 1460.06 C 723.418 1462.2 732.41 1468.32 736.759 1471.06 C 748.598 1478.66 760.67 1485.88 772.959 1492.72 C 827.341 1522.36 896.801 1544.3 958.26 1551.82 C 1062.44 1564.73 1168.1 1546.42 1261.87 1499.23 C 1283.91 1488.14 1308.23 1474.34 1327.71 1459.09 C 1334.98 1464.6 1381.58 1512.23 1386.39 1518.79 C 1374.91 1528.47 1352.8 1541.56 1339.29 1549.96 C 1270.57 1591.55 1194.27 1619.05 1114.81 1630.85 C 954.395 1654.58 791.099 1613.96 660.49 1517.84 C 681.522 1498.9 699.235 1478.47 719.187 1460.06 z"/>
<path transform="translate(0,0)" fill="rgb(238,220,241)" d="M 1665.72 514.602 C 1672.54 516.728 1696.48 552.61 1701.52 560.054 C 1772.08 665.676 1817.99 785.813 1835.84 911.574 C 1866.38 1137.71 1804.93 1354.64 1667.18 1535.66 C 1661.46 1530.66 1657.37 1526.76 1652.05 1521.32 C 1638.88 1508.56 1621.25 1490.87 1609.17 1477.23 C 1614.63 1467.37 1630.27 1447.38 1637.21 1436.51 C 1653.52 1410.96 1669.52 1385.07 1682.97 1357.87 C 1784.52 1155.82 1788.63 918.548 1694.13 713.108 C 1678.47 678.563 1667 657.435 1646.83 625.462 C 1639.95 614.57 1612.61 576.525 1610.62 570.661 C 1614.47 562.078 1656.36 523.568 1665.72 514.602 z"/>
<path transform="translate(0,0)" fill="rgb(204,147,214)" d="M 1517.97 660.705 C 1522.95 663.994 1538.77 688.951 1542.64 695.144 C 1587.62 766.596 1617.51 846.494 1630.47 929.924 C 1655.46 1091.08 1615.35 1255.56 1518.98 1387.12 C 1513.83 1382.29 1508.39 1376.64 1503.33 1371.62 L 1459.49 1327.8 C 1467.06 1314.44 1477.48 1300.06 1485.66 1285.94 C 1509.15 1245.05 1527.08 1201.21 1538.96 1155.57 C 1569.39 1035.96 1557.44 909.495 1505.15 797.698 C 1490.8 767.058 1477.22 747.067 1460.49 718.995 C 1477.93 700.49 1499.52 678.04 1517.97 660.705 z"/>
<path transform="translate(0,0)" fill="rgb(238,220,241)" d="M 381.009 512.866 C 386.789 516.845 399.8 530.911 405.185 536.421 L 439.033 570.452 C 435.67 576.32 426.08 588.454 421.7 594.468 C 412.514 606.952 403.948 619.882 396.033 633.209 C 340.07 726.436 307.485 817.641 292.218 925.588 C 270.258 1080.86 302.429 1244.03 377.023 1381.67 C 396.797 1418.16 415.618 1444.57 439.744 1477.32 C 426.482 1489.52 412.809 1504.12 399.624 1516.94 C 394.871 1522.03 387.934 1528.4 382.821 1533.41 C 366.971 1521.49 335.453 1470.55 324.369 1452.26 C 241.374 1315.68 199.647 1158.01 204.214 998.257 C 209.691 848.29 254.998 702.485 335.48 575.825 C 343.421 563.478 371.133 522.06 381.009 512.866 z"/>
<path transform="translate(0,0)" fill="rgb(204,147,214)" d="M 528.477 661.434 C 533.728 663.243 580.994 712.088 589.372 720.162 C 563.47 753.856 541.23 796.62 526.255 836.359 C 478.19 964.339 481.072 1105.88 534.305 1231.8 C 543.165 1252.35 555.433 1274.59 566.701 1294.01 C 572.973 1304.83 581.989 1317.15 586.961 1328.15 C 584.902 1334.35 554.139 1362.84 547.512 1369.29 C 541.348 1375.29 535.342 1381.46 529.499 1387.77 C 523.402 1381.97 511.045 1360.98 505.831 1352.71 C 462.922 1284.68 434.512 1212.07 420.01 1132.9 C 397.253 1007.22 414.262 877.561 468.668 761.996 C 486.74 724.144 504.884 695.541 528.477 661.434 z"/>
<path transform="translate(0,0)" fill="rgb(238,220,241)" d="M 1003.59 198.423 C 1189.12 193.189 1394.52 259.165 1536.85 379.702 C 1526.17 393.102 1492.7 424.019 1478.95 437.67 C 1364.28 350.745 1244.38 299.401 1100.41 284.336 C 1082.63 282.477 1062.28 282.002 1044.25 281.161 C 872.264 275.714 703.909 331.364 569.05 438.238 C 551.506 420.851 527.262 397.882 511.56 379.708 C 525.475 366.24 566.84 338.344 583.531 327.477 C 683.252 263.762 795.502 222.225 912.678 205.679 C 944.358 201.449 972.544 200.801 1003.59 198.423 z"/>
<path transform="translate(0,0)" fill="rgb(204,147,214)" d="M 993.736 410.438 C 1137.76 402.191 1271.63 446.044 1388.14 529.523 C 1368.9 549.437 1348.4 568.617 1328.66 588.12 C 1310.83 577 1295.67 566.991 1277.09 556.653 C 1205.76 516.978 1136.94 498.618 1056.25 492.16 C 977.49 487.23 888.792 502.574 816.276 534.041 C 783.247 548.373 749.686 568.134 719.802 588.113 C 713.576 582.607 663.888 533.429 660.862 528.87 C 759.331 457.958 871.924 415.441 993.736 410.438 z"/>
<path transform="translate(0,0)" fill="rgb(147,40,167)" d="M 1685.88 294.66 C 1703.95 320.168 1725.07 346.156 1753 361.411 C 1741.59 374.45 1722.77 391.762 1709.91 404.602 L 1622.6 492.094 L 1309.27 805.171 C 1322.82 824.499 1332.89 839.001 1343.77 860.088 C 1379 929.42 1390.95 1008.26 1377.85 1084.92 C 1368.16 1142.22 1344.45 1196.23 1308.81 1242.14 L 1593.76 1527.11 C 1634.8 1567.2 1675.49 1607.64 1715.84 1648.43 C 1732.79 1665.5 1754.68 1686.15 1770.41 1703.75 C 1738.64 1724.03 1724.11 1739.37 1704.02 1770.42 C 1685.02 1752.59 1664.28 1730.86 1645.67 1712.27 L 1527.39 1593.91 L 1242.84 1309.02 C 1210.1 1331.93 1180.81 1349.63 1142.86 1362.77 C 1025.96 1403.26 903.859 1382.45 805.497 1309.03 C 757.32 1355.27 709.039 1405.32 661.765 1452.74 L 343.995 1770.23 C 329.447 1742.64 302.864 1720.27 277.154 1703.59 C 294.3 1685.01 317.892 1662.66 336.01 1644.52 L 451.722 1528.8 L 738.781 1241.99 C 640.231 1117.77 640.394 929.304 739.104 805.208 C 716.157 785.306 682.844 749.456 660.135 726.702 L 513.229 579.842 L 371.184 437.753 C 349.456 416.084 315.127 383.883 295.479 361.405 C 327.155 340.515 340.904 326.108 361.94 294.718 C 393.869 324.531 430.22 363.063 461.33 394.65 L 586.438 519.92 C 637.673 570.607 688.628 621.574 739.303 672.821 C 760.378 693.829 785.787 717.398 805.736 738.386 C 939.94 640.07 1108.49 638.436 1242.36 738.656 C 1336.84 641.287 1436.74 543.812 1532.9 447.619 L 1638.74 341.655 C 1650.68 329.748 1674.18 304.604 1685.88 294.66 z M 1030.49 1188.13 C 1120.95 1184.57 1191.49 1108.51 1188.25 1018.04 C 1185.01 927.563 1109.21 856.748 1018.73 859.661 C 927.782 862.589 856.526 938.86 859.781 1029.8 C 863.037 1120.73 939.564 1191.71 1030.49 1188.13 z"/>
<path transform="translate(0,0)" fill="rgb(91,90,198)" d="M 1837.37 0 L 1869.6 0 C 1881.69 2.55258 1894.92 3.41288 1906.66 6.63014 C 1951.91 19.3087 1990.99 48.0169 2016.61 87.396 C 2028.98 106.429 2037.61 126.833 2042.86 148.932 C 2044.84 157.27 2046.06 168.952 2048 176.331 L 2048 209.504 C 2045.34 223.168 2043.89 235.62 2039.98 249.109 C 2026.83 293.187 1998.81 331.343 1960.68 357.076 C 1916.77 386.753 1864.53 395.728 1812.86 385.374 C 1789.77 380.746 1773.46 373.343 1753 361.411 C 1725.07 346.156 1703.95 320.168 1685.88 294.66 C 1674.41 274.269 1666.33 252.151 1661.95 229.17 C 1652.56 179.22 1663.23 127.581 1691.67 85.4526 C 1717.17 47.3749 1755.57 19.7843 1799.79 7.75295 C 1812.69 4.15748 1824.34 2.51184 1837.37 0 z"/>
<path transform="translate(0,0)" fill="rgb(91,90,198)" d="M 178.305 0 L 209.66 0 C 216.876 1.47035 224.256 2.46251 231.532 3.63981 C 337.073 20.7175 406.753 128.383 385.977 231.501 C 382.824 247.015 377.834 262.099 371.113 276.433 C 368.896 281.153 363.582 290.658 361.94 294.718 C 340.904 326.108 327.155 340.515 295.479 361.405 C 275.53 372.598 256.989 380.669 234.461 385.4 C 184.214 396.034 131.801 386.17 88.858 357.996 C 51.4137 333.167 23.4567 296.415 9.52223 253.702 C 4.95636 239.321 2.95545 226.338 0 211.703 L 0 178.363 C 2.05859 169.619 3.06916 159.706 5.09965 150.44 C 10.6739 126.138 20.8701 103.134 35.1326 82.6827 C 59.2035 48.0374 95.1973 21.1221 135.675 8.68091 C 149.546 4.41781 164.034 2.5641 178.305 0 z"/>
<path transform="translate(0,0)" fill="rgb(91,90,198)" d="M 1770.41 1703.75 C 1781.8 1698.3 1794.19 1692.1 1806.1 1688.18 C 1842.83 1676.08 1886.23 1676.09 1922.75 1688.86 C 1969.94 1705.58 2008.59 1740.32 2030.23 1785.47 C 2036.83 1799.47 2041.59 1814.26 2044.4 1829.48 C 2045.44 1835.05 2046.72 1845.28 2048 1850.12 L 2048 1874.91 C 2045.95 1885.45 2044.73 1898.91 2042.11 1908.83 C 2029.94 1954.99 2003.19 1991.16 1963.81 2017.71 C 1944.94 2030.53 1923.68 2039.41 1901.3 2043.82 C 1894.63 2045.08 1881.1 2046.69 1875.88 2048 L 1848.58 2048 C 1841.93 2046.32 1831.43 2044.92 1824.23 2043.44 C 1807.52 2039.92 1791.4 2034.08 1776.32 2026.07 C 1732.72 2002.43 1700.23 1962.52 1685.92 1915.03 C 1670.89 1864.09 1679.04 1816.4 1704.02 1770.42 C 1724.11 1739.37 1738.64 1724.03 1770.41 1703.75 z"/>
<path transform="translate(0,0)" fill="rgb(91,90,198)" d="M 0 1850.4 C 6.56137 1822.74 3.95976 1813.22 19.1172 1782.6 C 41.1388 1738.27 79.8181 1704.47 126.697 1688.58 C 179.889 1670.69 228.194 1679.16 277.154 1703.59 C 302.864 1720.27 329.447 1742.64 343.995 1770.23 C 368.856 1818.26 377.7 1865.78 360.931 1918.58 C 345.82 1965.87 312.482 2005.19 268.298 2027.84 C 253.116 2035.71 236.589 2040.52 219.912 2044.05 C 213.638 2045.38 204.358 2046.51 198.531 2048 L 170.576 2048 C 163.998 2046.38 154.247 2045.24 147.029 2043.75 C 123.868 2039.12 101.886 2029.85 82.4103 2016.49 C 46.8392 1991.69 18.0117 1953.67 6.31982 1911.69 C 3.56028 1901.79 1.83994 1887.02 0 1876.47 L 0 1850.4 z"/>
</svg>