<svg xmlns="http://www.w3.org/2000/svg"  viewBox="0 0 468 468" width="58px" height="58px"><path d="M 171.08789 29 C 153.44289 29 139.08789 43.359719 139.08789 61.011719 L 139.08789 93.197266 L 32 93.197266 C 14.355 93.197266 0 107.55894 0 125.21094 L 0 406.98828 C 0 424.63928 14.355 439 32 439 L 436 439 C 453.645 439 468 424.64028 468 406.98828 L 468 340.02148 C 468 333.39448 462.627 328.02148 456 328.02148 C 449.373 328.02148 444 333.39448 444 340.02148 L 444 406.98828 C 444 411.40628 440.411 415 436 415 L 32 415 C 27.589 415 24 411.40628 24 406.98828 L 24 216.93555 L 185.49805 253.33008 L 185.49805 266.75977 C 185.49805 293.50377 207.256 315.26172 234 315.26172 C 260.744 315.26172 282.50195 293.50377 282.50195 266.75977 L 282.50195 253.33008 L 444 216.93555 L 444 244.16602 C 444 250.79302 449.373 256.16602 456 256.16602 C 462.627 256.16602 468 250.79302 468 244.16602 L 468 125.20898 C 468 107.55798 453.645 93.197266 436 93.197266 L 328.91211 93.197266 L 328.91211 61.011719 C 328.91211 43.360719 314.55711 29 296.91211 29 L 171.08789 29 z M 171.08789 53 L 296.91211 53 C 301.32311 53 304.91211 56.593719 304.91211 61.011719 L 304.91211 93.197266 L 163.08789 93.197266 L 163.08789 61.011719 C 163.08789 56.593719 166.67689 53 171.08789 53 z M 32 117.19727 L 436 117.19727 C 440.411 117.19727 444 120.79098 444 125.20898 L 444 192.33203 L 282.50195 228.72852 L 282.50195 212.40234 C 282.50195 205.77534 277.12895 200.40234 270.50195 200.40234 L 197.49805 200.40234 C 190.87105 200.40234 185.49805 205.77534 185.49805 212.40234 L 185.49805 228.72852 L 24 192.33203 L 24 125.20898 C 24 120.79098 27.589 117.19727 32 117.19727 z M 209.49805 224.40234 L 258.50195 224.40234 L 258.50195 266.75977 C 258.50195 280.27077 247.511 291.26172 234 291.26172 C 220.489 291.26172 209.49805 280.27077 209.49805 266.75977 L 209.49805 224.40234 z M 454.08008 279.64648 A 13.5 13.508 0 1 0 454.08008 306.66211 A 13.5 13.508 0 1 0 454.08008 279.64648 z"/></svg>